<svg width="100" height="100" viewBox="0 0 100 100" fill="none" xmlns="http://www.w3.org/2000/svg">
<path fill-rule="evenodd" clip-rule="evenodd" d="M20 0C8.95431 0 0 8.9543 0 20V80C0 91.0457 8.9543 100 20 100H80C91.0457 100 100 91.0457 100 80V20C100 8.95431 91.0457 0 80 0H20ZM44.05 61.05L51.35 68.35C54.75 71.75 54.75 77.15 51.35 80.55L44.05 87.85C40.65 91.25 35.25 91.25 31.85 87.85L24.55 80.55C21.15 77.15 21.15 71.75 24.55 68.35L31.85 61.05C35.25 57.65 40.65 57.65 44.05 61.05ZM36.05 74.35C36.05 75.45 36.95 76.25 37.95 76.25C38.95 76.25 39.75 75.45 39.85 74.35C39.85 73.25 39.05 72.45 37.95 72.45C36.85 72.45 36.05 73.35 36.05 74.35ZM31.85 39.35C35.25 42.75 40.65 42.75 44.05 39.35L51.35 32.05C54.75 28.65 54.75 23.25 51.35 19.85L44.05 12.55C40.65 9.15 35.25 9.15 31.85 12.55L24.55 19.85C21.15 23.25 21.15 28.65 24.55 32.05L31.85 39.35ZM37.95 24.05C38.95 24.05 39.85 24.85 39.85 25.95C39.85 26.95 39.05 27.85 37.95 27.85C36.85 27.85 36.05 26.95 36.05 25.95C36.05 24.95 36.95 24.05 37.95 24.05ZM68.25 36.75L75.55 44.05C78.95 47.45 78.95 52.85 75.55 56.25L68.25 63.55C64.85 66.95 59.45 66.95 56.05 63.55L48.75 56.25C45.35 52.85 45.35 47.45 48.75 44.05L56.05 36.75C59.45 33.35 64.85 33.35 68.25 36.75ZM60.25 50.15C60.25 51.25 61.15 52.05 62.15 52.05C63.15 52.05 64.05 51.15 64.05 50.15C64.05 49.05 63.15 48.25 62.15 48.25C61.05 48.25 60.25 49.15 60.25 50.15Z" fill="#0D6EFD"/>
</svg>
