<svg width="425" height="81" viewBox="0 0 425 81" fill="none" xmlns="http://www.w3.org/2000/svg">
<path d="M106.25 43.75C107.55 45.45 108.15 47.45 108.15 49.85C108.15 53.25 106.85 55.95 104.15 57.75C101.45 59.55 97.65 60.5499 92.55 60.5499H72.35V21.45H91.45C96.25 21.45 99.85 22.35 102.45 24.15C104.95 25.95 106.25 28.45 106.25 31.55C106.25 33.45 105.75 35.15 104.85 36.65C103.95 38.15 102.65 39.35 101.05 40.15C103.25 40.9499 104.95 42.15 106.25 43.75ZM81.35 28.25V37.45H90.35C92.55 37.45 94.25 37.05 95.45 36.25C96.65 35.45 97.15 34.35 97.15 32.75C97.15 31.25 96.55 30.05 95.45 29.35C94.25 28.55 92.65 28.25 90.35 28.25H81.35ZM97.25 52.55C98.45 51.75 99.05 50.55 99.05 48.95C99.05 45.75 96.65 44.05 91.85 44.05H81.35V53.75H91.85C94.25 53.75 96.05 53.35 97.25 52.55Z" fill="#0D6EFD"/>
<path d="M114.45 19.15H123.15V60.55H114.45V19.15Z" fill="#0D6EFD"/>
<path d="M136.95 59.05C134.45 57.75 132.45 55.85 131.05 53.55C129.65 51.25 128.95 48.55 128.95 45.55C128.95 42.55 129.65 39.95 131.05 37.55C132.45 35.25 134.45 33.35 136.95 32.05C139.45 30.75 142.25 30.05 145.45 30.05C148.65 30.05 151.45 30.75 153.95 32.05C156.45 33.35 158.35 35.25 159.85 37.55C161.25 39.85 161.95 42.55 161.95 45.55C161.95 48.55 161.25 51.15 159.85 53.55C158.45 55.85 156.45 57.75 153.95 59.05C151.45 60.35 148.65 61.05 145.45 61.05C142.35 60.95 139.45 60.35 136.95 59.05ZM150.95 51.55C152.35 50.05 153.05 48.05 153.05 45.45C153.05 42.95 152.35 40.95 150.95 39.35C149.55 37.85 147.65 37.05 145.45 37.05C143.25 37.05 141.35 37.85 139.95 39.35C138.45 40.85 137.75 42.85 137.75 45.45C137.75 47.95 138.45 49.95 139.95 51.55C141.45 53.05 143.25 53.85 145.45 53.85C147.75 53.85 149.55 53.05 150.95 51.55Z" fill="#0D6EFD"/>
<path d="M173.65 59.05C171.15 57.75 169.15 55.85 167.65 53.55C166.25 51.25 165.55 48.55 165.55 45.55C165.55 42.55 166.25 39.95 167.65 37.55C169.05 35.25 171.05 33.35 173.65 32.05C176.15 30.75 179.05 30.05 182.25 30.05C185.45 30.05 188.15 30.75 190.55 32.05C192.95 33.35 194.65 35.25 195.75 37.75L188.95 41.35C187.35 38.55 185.15 37.25 182.15 37.25C179.85 37.25 178.05 37.95 176.55 39.45C175.05 40.95 174.35 42.95 174.35 45.55C174.35 48.15 175.05 50.15 176.55 51.65C178.05 53.15 179.95 53.85 182.15 53.85C185.15 53.85 187.35 52.45 188.95 49.75L195.75 53.45C194.65 55.85 192.95 57.65 190.55 59.05C188.15 60.35 185.45 61.05 182.25 61.05C179.05 60.95 176.15 60.35 173.65 59.05Z" fill="#0D6EFD"/>
<path d="M213.35 48.75L209.15 52.85V60.45H200.45V19.15H209.15V42.55L221.85 30.45H232.25L219.75 43.15L233.35 60.45H222.85L213.35 48.75Z" fill="#0D6EFD"/>
<path d="M269.55 52.35H263.15V60.5499H254.35V52.35H233.35V46.25L251.75 21.45H261.25L244.15 44.95H254.65V37.65H263.15V44.95H269.55V52.35Z" fill="#0D6EFD"/>
<path d="M309.15 21.45L292.25 60.5499H283.35L266.55 21.45H276.35L288.05 49.35L300.15 21.45H309.15Z" fill="#0D6EFD"/>
<path d="M336.85 52.15H318.75L315.25 60.5499H305.95L323.35 21.45H332.25L349.75 60.5499H340.25L336.85 52.15ZM333.95 45.35L327.75 30.35L321.55 45.35H333.95Z" fill="#0D6EFD"/>
<path d="M378.75 60.5499L371.25 49.65H370.85H362.95V60.5499H353.95V21.45H370.85C374.35 21.45 377.35 22.05 379.85 23.15C382.35 24.35 384.35 25.95 385.75 28.05C387.15 30.15 387.85 32.65 387.85 35.55C387.85 38.45 387.15 40.95 385.75 43.05C384.35 45.15 382.35 46.75 379.85 47.85L388.65 60.45H378.75V60.5499ZM376.45 30.65C375.05 29.45 372.95 28.85 370.25 28.85H362.85V42.45H370.25C372.95 42.45 375.05 41.85 376.45 40.65C377.85 39.4499 378.55 37.75 378.55 35.65C378.55 33.45 377.85 31.75 376.45 30.65Z" fill="#0D6EFD"/>
<path d="M398.75 59.95C395.85 59.15 393.55 58.0499 391.85 56.6499L394.95 49.85C396.65 51.05 398.65 52.05 400.95 52.85C403.25 53.5499 405.55 53.95 407.85 53.95C410.45 53.95 412.35 53.5499 413.55 52.85C414.75 52.05 415.35 51.05 415.35 49.85C415.35 48.95 414.95 48.15 414.25 47.55C413.55 46.95 412.55 46.45 411.45 46.05C410.35 45.65 408.75 45.25 406.85 44.85C403.85 44.15 401.45 43.45 399.55 42.75C397.65 42.05 396.05 40.95 394.65 39.35C393.25 37.75 392.65 35.75 392.65 33.15C392.65 30.8499 393.25 28.85 394.45 26.95C395.65 25.15 397.55 23.65 400.05 22.55C402.55 21.45 405.55 20.95 409.15 20.95C411.65 20.95 414.05 21.25 416.45 21.85C418.85 22.45 420.95 23.35 422.65 24.45L419.85 31.35C416.25 29.35 412.65 28.25 409.05 28.25C406.55 28.25 404.65 28.65 403.45 29.45C402.25 30.25 401.65 31.3499 401.65 32.65C401.65 33.95 402.35 34.95 403.75 35.65C405.15 36.3499 407.25 36.95 410.15 37.55C413.15 38.25 415.55 38.9499 417.45 39.65C419.35 40.35 420.95 41.45 422.35 42.95C423.75 44.45 424.35 46.5499 424.35 49.15C424.35 51.35 423.75 53.45 422.45 55.25C421.25 57.05 419.35 58.5499 416.85 59.6499C414.35 60.7499 411.35 61.25 407.75 61.25C404.55 61.25 401.55 60.75 398.75 59.95Z" fill="#0D6EFD"/>
<path d="M22.05 51.05C18.65 47.65 13.25 47.65 9.85 51.05L2.55 58.35C-0.85 61.75 -0.85 67.15 2.55 70.55L9.85 77.85C13.25 81.25 18.65 81.25 22.05 77.85L29.35 70.55C32.75 67.15 32.75 61.75 29.35 58.35L22.05 51.05ZM15.95 66.25C14.95 66.25 14.05 65.45 14.05 64.35C14.05 63.35 14.85 62.45 15.95 62.45C17.05 62.45 17.85 63.25 17.85 64.35C17.75 65.45 16.95 66.25 15.95 66.25Z" fill="#0D6EFD"/>
<path d="M9.85 29.35C13.25 32.75 18.65 32.75 22.05 29.35L29.35 22.05C32.75 18.65 32.75 13.25 29.35 9.85L22.05 2.55C18.65 -0.85 13.25 -0.85 9.85 2.55L2.55 9.85C-0.85 13.25 -0.85 18.65 2.55 22.05L9.85 29.35ZM15.95 14.05C16.95 14.05 17.85 14.85 17.85 15.95C17.85 16.95 17.05 17.85 15.95 17.85C14.85 17.85 14.05 16.95 14.05 15.95C14.05 14.95 14.95 14.05 15.95 14.05Z" fill="#0D6EFD"/>
<path d="M53.55 34.05L46.25 26.75C42.85 23.35 37.45 23.35 34.05 26.75L26.75 34.05C23.35 37.45 23.35 42.85 26.75 46.25L34.05 53.55C37.45 56.95 42.85 56.95 46.25 53.55L53.55 46.25C56.95 42.85 56.95 37.45 53.55 34.05ZM40.15 42.05C39.15 42.05 38.25 41.25 38.25 40.15C38.25 39.15 39.05 38.25 40.15 38.25C41.15 38.25 42.05 39.05 42.05 40.15C42.05 41.15 41.15 42.05 40.15 42.05Z" fill="#0D6EFD"/>
</svg>
